:version 1.10
:name ASF
:units
  mass 1
  length 1
  angle deg
:documentation
  ASF file generated by Kaydara
:root
  axis xyz
  order  tx ty tz rx ry rz
  position 0 0 0
  orientation 0 0 0
:bonedata
  begin
    id 1
    name RightUpLegDummy
    direction -0.718183 -0.695806 0.00816078
    length 4.904
    axis 0 0 0 xyz
  end
  begin
    id 2
    name RightUpLeg
    direction -0.0736652 -0.994202 0.0783343
    length 17.4976
    axis -2.72909 -3.00389 -4.00133 xyz
    dof rx ry rz
  end
  begin
    id 3
    name RightLeg
    direction -0.0389037 -0.994596 -0.0962598
    length 16.5821
    axis 3.95836 -18.5909 -4.46993 xyz
    dof rx ry rz
  end
  begin
    id 4
    name RightFoot
    direction -0.311643 -0.412678 0.855906
    length 3.77069
    axis -1.99483 -18.8351 -3.27644 xyz
    dof rx ry rz
  end
  begin
    id 5
    name RightToes
    direction -0.317852 0.0389852 0.947339
    length 3.85082
    axis -2.00228 -18.1713 -3.25211 xyz
    dof rx ry rz
  end
  begin
    id 6
    name SpineDummy
    direction 8.3039e-015 1 4.44677e-016
    length 4.6813
    axis 0 0 0 xyz
  end
  begin
    id 7
    name Spine
    direction -0.000262373 0.999988 0.00493267
    length 10.1015
    axis -0.00246081 0.00062579 0.0150362 xyz
    dof rx ry rz
  end
  begin
    id 8
    name Spine1
    direction 0 0 0
    length 0
    axis -0.00349562 0.000650293 0.0196666 xyz
    dof rx ry rz
  end
  begin
    id 9
    name HEadDummy
    direction -0.000343232 0.999999 0.00123745
    length 3.43865
    axis -0.00349562 0.000650293 0.0196666 xyz
  end
  begin
    id 10
    name HEad
    direction -0.0461221 0.980933 0.188796
    length 5.12695
    axis -0.00351404 -7.04812 0.0199272 xyz
    dof rx ry rz
  end
  begin
    id 11
    name LeftShoulder1Dummy
    direction 0.998904 -0.0399089 -0.0244534
    length 3.5433
    axis -0.00349562 0.000650293 0.0196666 xyz
  end
  begin
    id 12
    name LeftShoulder1
    direction 0.99951 1.64443e-005 0.0312999
    length 4.05031
    axis -0.00349562 0.000650293 0.0196666 xyz
    dof rx ry rz
  end
  begin
    id 13
    name LeftArm
    direction 0.984791 0.0515299 0.165927
    length 12.9126
    axis -64.823 -10.7743 5.20463 xyz
    dof rx ry rz
  end
  begin
    id 14
    name LeftForeArm
    direction 0.984968 0.0534808 0.16425
    length 10.8596
    axis -30.0462 -7.70601 1.87451 xyz
    dof rx ry rz
  end
  begin
    id 15
    name LeftHand
    direction 0.975871 0.0289682 0.216418
    length 6.62295
    axis -20.1348 -6.98077 1.86072 xyz
    dof rx ry rz
  end
  begin
    id 16
    name RightShoulderDummy
    direction -0.998877 -0.0405946 -0.0244307
    length 3.5433
    axis -0.00349562 0.000650293 0.0196666 xyz
  end
  begin
    id 17
    name RightShoulder
    direction -0.998933 -0.0249743 -0.0388558
    length 4.05031
    axis -0.0205316 -4.02113 1.41395 xyz
    dof rx ry rz
  end
  begin
    id 18
    name RightArm
    direction -0.997559 0.068664 0.0127103
    length 12.9638
    axis -67.3882 1.84188 -6.15987 xyz
    dof rx ry rz
  end
  begin
    id 19
    name RightForeArm
    direction -0.991508 0.0912848 0.0926241
    length 10.8312
    axis -22.1975 3.41087 -4.28711 xyz
    dof rx ry rz
  end
  begin
    id 20
    name RightHand
    direction -0.989262 0.0600788 0.133232
    length 6.57864
    axis -12.2911 2.17515 -4.39675 xyz
    dof rx ry rz
  end
  begin
    id 21
    name LeftUpLegDummy
    direction 0.718183 -0.695806 0.00816078
    length 4.904
    axis 0 0 0 xyz
  end
  begin
    id 22
    name LeftUpLeg
    direction 0.0831398 -0.99469 0.0606531
    length 17.4976
    axis -1.71016 2.29552 4.63832 xyz
    dof rx ry rz
  end
  begin
    id 23
    name LeftLeg
    direction 0.0498442 -0.991778 -0.117862
    length 16.5821
    axis 5.13757 15.5727 5.13348 xyz
    dof rx ry rz
  end
  begin
    id 24
    name LeftFoot
    direction 0.269026 -0.433896 0.85986
    length 3.77069
    axis -0.576502 15.6961 4.10267 xyz
    dof rx ry rz
  end
  begin
    id 25
    name LeftToes
    direction 0.277311 0.0251143 0.960452
    length 3.85048
    axis -0.576502 15.6961 4.10267 xyz
    dof rx ry rz
  end
:hierarchy
  begin
    root RightUpLegDummy SpineDummy LeftUpLegDummy
    RightUpLegDummy RightUpLeg
    RightUpLeg RightLeg
    RightLeg RightFoot
    RightFoot RightToes
    SpineDummy Spine
    Spine Spine1
    Spine1 HEadDummy LeftShoulder1Dummy RightShoulderDummy
    HEadDummy HEad
    LeftShoulder1Dummy LeftShoulder1
    LeftShoulder1 LeftArm
    LeftArm LeftForeArm
    LeftForeArm LeftHand
    RightShoulderDummy RightShoulder
    RightShoulder RightArm
    RightArm RightForeArm
    RightForeArm RightHand
    LeftUpLegDummy LeftUpLeg
    LeftUpLeg LeftLeg
    LeftLeg LeftFoot
    LeftFoot LeftToes
  end

:SAMPLES-PER-SECOND 30
:FULLY-SPECIFIED
:DEGREES
1
root  -7.38202 40.8137 103.601 -179.564 7.41586 -179.873
RightUpLeg  0.709963 -0.109891 1.2727
RightLeg  -0.676482 -5.00157 1.22013
RightFoot  0.553438 0.246012 -2.12882
RightToes  3.97569e-016 -3.18055e-015 -2.98177e-016
Spine  -4.49252 0.336629 -0.798645
Spine1  8.80282 0.000817553 1.79699
HEad  -5.1903 -2.65154 -1.44334
LeftShoulder1  -3.88251e-019 9.70628e-020 -3.87848e-018
LeftArm  -29.9614 56.8278 -70.4466
LeftForeArm  -0.73827 -10.2249 -1.9921
LeftHand  -0.673486 -2.70121 10.345
RightShoulder  9.05818 11.2682 41.2661
RightArm  8.17595 -38.8612 13.6451
RightForeArm  10.2958 14.2178 -4.71493
RightHand  -0.81114 2.84663 -11.3205
LeftUpLeg  1.03821 -2.17463 -3.20665
LeftLeg  -0.347703 8.95535 0.246293
LeftFoot  -0.868243 -0.296975 2.85283
LeftToes  4.86531e-011 4.41684e-011 -2.86034e-011
2
root  -7.38021 40.8137 103.591 -179.564 7.46027 -179.881
RightUpLeg  0.72487 -0.105428 1.26716
RightLeg  -0.696872 -4.96496 1.21587
RightFoot  0.557194 0.243092 -2.09883
RightToes  3.97569e-016 -3.18055e-015 -2.98177e-016
Spine  -4.39113 0.373459 -0.767784
Spine1  8.58452 0.0464966 1.76828
HEad  -5.07328 -2.6633 -1.38073
LeftShoulder1  -3.88251e-019 9.70628e-020 -3.87848e-018
LeftArm  -29.9129 56.9378 -70.4205
LeftForeArm  -0.591553 -10.1679 -2.01307
LeftHand  -0.692951 -2.95447 10.3123
RightShoulder  9.09665 11.2886 41.3974
RightArm  8.31522 -38.8819 13.3377
RightForeArm  10.5636 14.2317 -4.74296
RightHand  -0.827359 2.9215 -11.4437
LeftUpLeg  1.08894 -2.17421 -3.21495
LeftLeg  -0.407136 9.00539 0.218499
LeftFoot  -0.885766 -0.295629 2.83866
LeftToes  4.86531e-011 4.41684e-011 -2.86034e-011
3
root  -7.37616 40.8137 103.578 -179.566 7.50572 -179.88
RightUpLeg  0.750969 -0.084758 1.28022
RightLeg  -0.735488 -4.94367 1.21241
RightFoot  0.566925 0.243121 -2.09914
RightToes  3.97569e-016 -3.18055e-015 -2.98177e-016
Spine  -4.24561 0.422518 -0.732932
Spine1  8.28865 0.101573 1.75305
HEad  -5.21823 -2.71641 -1.18767
LeftShoulder1  -3.88251e-019 9.70628e-020 -3.87848e-018
LeftArm  -29.9227 57.0626 -70.4132
LeftForeArm  -0.318507 -10.0644 -2.0101
LeftHand  -0.721329 -3.44021 10.1311
RightShoulder  9.14339 11.314 41.5548
RightArm  8.34664 -38.9259 12.9803
RightForeArm  11.0668 14.1661 -4.75824
RightHand  -0.877816 3.35793 -11.5523
LeftUpLeg  1.12566 -2.17091 -3.21217
LeftLeg  -0.436538 9.06092 0.209366
LeftFoot  -0.91133 -0.289173 2.77071
LeftToes  4.86531e-011 4.41684e-011 -2.86034e-011
4
root  -7.37125 40.8137 103.576 -179.578 7.50771 -179.877
RightUpLeg  0.772907 -0.072647 1.2958
RightLeg  -0.739589 -4.95382 1.2064
RightFoot  0.562808 0.245991 -2.12861
RightToes  3.97569e-016 -3.18055e-015 -2.98177e-016
Spine  -4.23461 0.455589 -0.758982
Spine1  8.31666 0.120265 1.81947
HEad  -5.95997 -2.78398 -0.9746
LeftShoulder1  -3.88251e-019 9.70628e-020 -3.87848e-018
LeftArm  -30.0737 57.0438 -70.5304
LeftForeArm  -0.174561 -10.0842 -1.95336
LeftHand  -0.722454 -3.74737 9.80208
RightShoulder  9.14904 11.3186 41.5703
RightArm  8.29883 -38.9968 12.931
RightForeArm  11.1256 14.1198 -4.74178
RightHand  -0.893673 3.55085 -11.5133
LeftUpLeg  1.13021 -2.1585 -3.19826
LeftLeg  -0.406974 9.06321 0.218789
LeftFoot  -0.918191 -0.281481 2.68978
LeftToes  4.86531e-011 4.41684e-011 -2.86034e-011
